<?xml version="1.0" encoding="utf-8"?>
<!-- Generator: Adobe Illustrator 16.0.0, SVG Export Plug-In . SVG Version: 6.00 Build 0)  -->
<!DOCTYPE svg PUBLIC "-//W3C//DTD SVG 1.1//EN" "http://www.w3.org/Graphics/SVG/1.1/DTD/svg11.dtd">
<svg version="1.1" id="Capa_1" xmlns="http://www.w3.org/2000/svg" xmlns:xlink="http://www.w3.org/1999/xlink" x="0px" y="0px"
	 width="512px" height="512px" viewBox="0 0 512 512" enable-background="new 0 0 512 512" xml:space="preserve">
<g>
	<g>
		<g>
			<g>
				<g>
					<path fill="#8795DE" d="M91.605,36.583c-46.862,0-84.772,38.326-84.097,85.343c0.655,45.543,38.006,82.576,83.553,82.864
						c25.507,0.161,48.399-11.036,63.928-28.828c1.639-1.878,4.629-1.606,5.898,0.538l9.376,15.848
						c1.516,2.563,5.444,1.486,5.443-1.489l-0.018-71.763C174.84,73.38,137.522,36.583,91.605,36.583L91.605,36.583z"/>
				</g>
			</g>
			<path fill="#6C7FD8" d="M7.509,121.926c0.067,4.675,0.541,9.253,1.352,13.718c7.094-39.268,41.432-69.061,82.745-69.061
				c45.917,0,83.234,36.798,84.083,82.512v-30c-0.85-45.714-38.167-82.512-84.083-82.512C44.743,36.583,6.833,74.909,7.509,121.926
				L7.509,121.926z"/>
		</g>
		<g>
			<path fill="#CBC4CC" d="M502,185.023h-95.5v-35H502c5.523,0,10,4.477,10,10v15C512,180.545,507.523,185.023,502,185.023z"/>
			<path fill="#B5ADB6" d="M406.5,165.023H502c5.523,0,10,4.477,10,10v-15c0-5.523-4.477-10-10-10h-95.5V165.023z"/>
			<path fill="#CBC4CC" d="M502,461.671h-95.5v-35H502c5.523,0,10,4.477,10,10v15C512,457.193,507.523,461.671,502,461.671z"/>
			<path fill="#B5ADB6" d="M502,185.023H359.71c-11.046,0-20,8.953-20,20v201.649c0,11.046,8.954,20,20,20H502
				c5.523,0,10-4.478,10-10V195.023C512,189.5,507.523,185.023,502,185.023z"/>
			<path fill="#A79BA7" d="M339.71,205.023v30c0-11.047,8.954-20,20-20H502c5.523,0,10,4.477,10,10v-30c0-5.523-4.477-10-10-10
				H359.71C348.665,185.023,339.71,193.977,339.71,205.023L339.71,205.023z"/>
			<path fill="#7A6D79" d="M304.38,340.003V271.69h35.335v68.313H304.38z"/>
			<path fill="#685E68" d="M304.38,301.69v-30h35.335v30H304.38z"/>
			<path fill="#A79BA7" d="M304.38,238.73v135.08c0,16.128-13.073,29.201-29.202,29.201h-40.44
				c-16.128,0-29.201-13.074-29.201-29.201V238.73c0-16.129,13.074-29.203,29.201-29.203h40.441
				C291.307,209.529,304.38,222.604,304.38,238.73z"/>
			<path fill="#918291" d="M205.536,238.73v29.999c0-16.128,13.074-29.202,29.201-29.202h40.44
				c16.127,0,29.201,13.074,29.201,29.202V238.73c0-16.129-13.074-29.203-29.201-29.203h-40.441
				C218.61,209.529,205.536,222.604,205.536,238.73z"/>
			<circle fill="#7A6D79" cx="254.902" cy="349.648" r="18.623"/>
			<circle fill="#7A6D79" cx="254.902" cy="262.045" r="18.623"/>
			<g>
				<g>
					<circle fill="#FD8087" cx="102.945" cy="358.42" r="20.445"/>
				</g>
				<g>
					<circle fill="#FD8087" cx="102.945" cy="253.273" r="20.445"/>
				</g>
			</g>
			<path fill="#7A6D79" d="M275.02,194.541v14.988h-40.123v-14.988c0-11.079,8.982-20.061,20.061-20.061
				S275.02,183.461,275.02,194.541z"/>
			<path fill="#685E68" d="M234.897,194.541v14.988h0.178c1.25-9.879,9.665-17.524,19.883-17.524s18.634,7.646,19.883,17.524h0.179
				v-14.988c0-11.079-8.982-20.061-20.062-20.061S234.897,183.461,234.897,194.541z"/>
			<path fill="#7A6D79" d="M275.02,418v-14.988h-40.122V418c0,11.079,8.981,20.061,20.061,20.061S275.02,429.079,275.02,418z"/>
			<path fill="#7A6D79" d="M409.75,160.65v24.373h-48.746V160.65c0-13.461,10.912-24.373,24.373-24.373
				S409.75,147.189,409.75,160.65L409.75,160.65z"/>
			<path fill="#685E68" d="M361.005,160.65v24.373c0-13.462,10.912-24.373,24.373-24.373s24.373,10.911,24.373,24.373V160.65
				c0-13.461-10.912-24.373-24.373-24.373S361.005,147.189,361.005,160.65z"/>
			<path fill="#7A6D79" d="M409.75,451.044v-24.373h-48.746v24.373c0,13.461,10.912,24.373,24.373,24.373
				S409.75,464.505,409.75,451.044L409.75,451.044z"/>
			<path fill="#B5ADB6" d="M205.536,256.69v98.313h-25.713c-5.376,0-9.734-4.358-9.734-9.734v-78.844
				c0-5.376,4.358-9.734,9.734-9.734H205.536z"/>
			<path fill="#A79BA7" d="M170.089,266.425v30c0-5.376,4.358-9.734,9.734-9.734h25.713v-30h-25.713
				C174.447,256.69,170.089,261.049,170.089,266.425z"/>
		</g>
	</g>
	<path d="M380.176,305.847c0,18.627,15.154,33.782,33.781,33.782c4.142,0,7.5-3.358,7.5-7.5c0-4.143-3.358-7.5-7.5-7.5
		c-10.356,0-18.781-8.425-18.781-18.782c0-10.355,8.425-18.781,18.781-18.781s18.781,8.426,18.781,18.781c0,4.142,3.357,7.5,7.5,7.5
		H476c4.142,0,7.5-3.358,7.5-7.5s-3.358-7.5-7.5-7.5h-29.1c-3.42-15.03-16.893-26.281-32.942-26.281
		C395.331,272.064,380.176,287.22,380.176,305.847L380.176,305.847z M497,305.847c0,4.142,3.358,7.5,7.5,7.5s7.5-3.358,7.5-7.5
		s-3.358-7.5-7.5-7.5S497,301.705,497,305.847z M463.405,426.672c0,4.142,3.357,7.5,7.5,7.5H504.5c4.142,0,7.5-3.358,7.5-7.5
		c0-4.143-3.358-7.5-7.5-7.5h-33.595C466.763,419.172,463.405,422.529,463.405,426.672z M84.104,90.688c0,4.142,3.357,7.5,7.5,7.5
		c4.142,0,7.5-3.358,7.5-7.5c0-4.143-3.358-7.5-7.5-7.5C87.462,83.188,84.104,86.545,84.104,90.688z M84.104,120.688
		c0,4.142,3.357,7.5,7.5,7.5c4.142,0,7.5-3.358,7.5-7.5c0-4.143-3.358-7.5-7.5-7.5C87.462,113.188,84.104,116.545,84.104,120.688z
		 M26.364,56.383C9.015,73.985-0.354,97.282,0.01,122.034c0.712,49.455,41.536,89.942,91.005,90.256
		c24.926,0.157,48.709-9.813,66.047-27.526l6.748,11.404c2.424,4.095,7.136,6.002,11.726,4.745
		c4.589-1.257,7.672-5.297,7.672-10.056v-0.003l-0.018-71.762c0-0.046,0-0.092-0.001-0.138
		c-0.448-24.104-10.173-46.694-27.384-63.608c-17.233-16.937-40.033-26.264-64.199-26.264
		C66.887,29.083,43.718,38.778,26.364,56.383L26.364,56.383z M168.189,119.166l0.014,54.969c-3.662-7.05-13.321-9.458-18.865-3.104
		c-14.687,16.83-35.911,26.4-58.229,26.259C22.553,196.854-9.611,114.248,37.047,66.913C51.56,52.19,70.936,44.082,91.605,44.082
		C132.369,44.083,167.601,78.206,168.189,119.166L168.189,119.166z M84.104,150.687c0,4.143,3.357,7.5,7.5,7.5
		c4.142,0,7.5-3.357,7.5-7.5c0-4.142-3.358-7.5-7.5-7.5C87.462,143.187,84.104,146.545,84.104,150.687z M228.779,262.044
		c0,14.403,11.719,26.123,26.123,26.123s26.123-11.72,26.123-26.123s-11.719-26.123-26.123-26.123
		C240.498,235.922,228.779,247.641,228.779,262.044L228.779,262.044z M266.025,262.044c0,6.133-4.99,11.123-11.123,11.123
		s-11.123-4.99-11.123-11.123s4.99-11.123,11.123-11.123C261.036,250.922,266.025,255.912,266.025,262.044L266.025,262.044z
		 M353.505,160.65v17.587c-12.183,2.821-21.294,13.756-21.294,26.784v59.168H311.88v-25.461c0-17.724-12.629-32.553-29.36-35.963
		v-8.226c0-15.197-12.364-27.562-27.562-27.562s-27.561,12.364-27.561,27.562v8.226c-16.732,3.41-29.361,18.239-29.361,35.963
		v10.461h-18.213c-7.888,0-14.539,5.334-16.577,12.578l-32.361-8.728c-0.126-15.302-12.607-27.712-27.938-27.712
		c-15.409,0-27.945,12.535-27.945,27.945c0,15.408,12.536,27.944,27.945,27.944c10.208,0,19.15-5.504,24.027-13.697l35.616,9.606
		v57.438l-35.616,9.606c-4.877-8.193-13.82-13.697-24.027-13.697C87.537,330.475,75,343.011,75,358.42s12.536,27.944,27.945,27.944
		c15.331,0,27.813-12.41,27.938-27.712l32.361-8.727c2.038,7.245,8.689,12.578,16.577,12.578h18.213v11.308
		c0,17.725,12.629,32.553,29.361,35.963V418c0,15.196,12.363,27.561,27.561,27.561s27.561-12.364,27.561-27.561v-8.228
		c16.732-3.41,29.361-18.238,29.361-35.963v-26.308h20.331v59.169c0,13.029,9.11,23.963,21.294,26.785v17.588
		c0,17.575,14.298,31.873,31.873,31.873c10.844,0,20.434-5.447,26.194-13.745H504.5c4.142,0,7.5-3.358,7.5-7.5
		c0-4.143-3.358-7.5-7.5-7.5h-87.405c0.102-1.03,0.155-2.073,0.155-3.128v-16.872h23.655c4.142,0,7.5-3.358,7.5-7.5
		c0-4.143-3.358-7.5-7.5-7.5H409.77c-0.006,0-0.013-0.001-0.019-0.001s-0.013,0.001-0.019,0.001c-1.499,0-48.681,0-50.021,0
		c-6.893,0-12.5-5.607-12.5-12.5V340.1c0-0.033,0.005-0.063,0.005-0.097s-0.004-0.064-0.005-0.098v-68.118
		c0-0.033,0.005-0.064,0.005-0.098s-0.004-0.063-0.005-0.097v-66.572c0-6.893,5.607-12.5,12.5-12.5H504.5c4.142,0,7.5-3.357,7.5-7.5
		c0-4.142-3.358-7.5-7.5-7.5h-87.25v-16.872c0-1.056-0.054-2.099-0.155-3.128H504.5c4.142,0,7.5-3.357,7.5-7.5
		c0-4.142-3.358-7.5-7.5-7.5h-92.928c-5.761-8.298-15.352-13.745-26.195-13.745C367.803,128.777,353.505,143.075,353.505,160.65
		L353.505,160.65z M242.397,202.028v-7.488c0-6.926,5.635-12.562,12.561-12.562s12.562,5.636,12.562,12.562v7.488H242.397z
		 M267.52,410.512V418c0,6.926-5.636,12.561-12.562,12.561s-12.561-5.635-12.561-12.561v-7.488H267.52z M402.25,434.172v16.872
		c0,9.304-7.568,16.873-16.873,16.873c-9.304,0-16.873-7.569-16.873-16.873v-16.872H402.25z M90,253.273
		c0-7.138,5.808-12.944,12.945-12.944s12.945,5.807,12.945,12.944c0,7.139-5.808,12.945-12.945,12.945
		C95.809,266.219,90,260.412,90,253.273z M115.892,358.42c0,7.138-5.808,12.944-12.945,12.944s-12.945-5.807-12.945-12.944
		c0-7.139,5.808-12.945,12.945-12.945C110.083,345.475,115.892,351.281,115.892,358.42z M332.21,279.19v53.313h-20.33V279.19H332.21
		z M296.88,373.811c0,11.966-9.735,21.702-21.702,21.702h-40.439c-11.966,0-21.702-9.735-21.702-21.702v-64.245
		c0-4.142-3.358-7.5-7.5-7.5s-7.5,3.358-7.5,7.5v37.938h-18.213c-1.232,0-2.234-1.002-2.234-2.234v-78.844
		c0-1.232,1.002-2.234,2.234-2.234h18.213v15.375c0,4.143,3.358,7.5,7.5,7.5s7.5-3.357,7.5-7.5v-40.834
		c0-11.967,9.735-21.703,21.702-21.703h40.439c11.967,0,21.702,9.736,21.702,21.703V373.811z M402.25,160.65v16.873h-33.746V160.65
		c0-9.305,7.569-16.873,16.873-16.873C394.682,143.777,402.25,151.346,402.25,160.65L402.25,160.65z M228.779,349.648
		c0,14.404,11.719,26.123,26.123,26.123s26.123-11.719,26.123-26.123c0-14.403-11.719-26.123-26.123-26.123
		S228.779,335.245,228.779,349.648z M266.025,349.648c0,6.133-4.99,11.123-11.123,11.123s-11.123-4.99-11.123-11.123
		s4.99-11.123,11.123-11.123C261.036,338.525,266.025,343.516,266.025,349.648z"/>
</g>
</svg>
